<mxfile host="app.diagrams.net" modified="2023-08-20T12:34:24.966Z" agent="Mozilla/5.0 (Windows NT 10.0; Win64; x64) AppleWebKit/537.36 (KHTML, like Gecko) Chrome/115.0.0.0 Safari/537.36 Edg/115.0.1901.203" etag="pvkZe3sZULoJ4TPnBKEQ" version="21.6.8" type="device">
  <diagram name="Page-1" id="W-ckvRY6kZ8-Nekp-Lmx">
    <mxGraphModel dx="2261" dy="788" grid="1" gridSize="10" guides="1" tooltips="1" connect="1" arrows="1" fold="1" page="1" pageScale="1" pageWidth="827" pageHeight="1169" math="0" shadow="0">
      <root>
        <mxCell id="0" />
        <mxCell id="1" parent="0" />
        <mxCell id="hOOp_BMYauVUa1tc1dXk-21" style="edgeStyle=orthogonalEdgeStyle;rounded=0;orthogonalLoop=1;jettySize=auto;html=1;exitX=0;exitY=0.5;exitDx=0;exitDy=0;entryX=0.5;entryY=0;entryDx=0;entryDy=0;" edge="1" parent="1" source="hOOp_BMYauVUa1tc1dXk-4" target="hOOp_BMYauVUa1tc1dXk-18">
          <mxGeometry relative="1" as="geometry" />
        </mxCell>
        <mxCell id="hOOp_BMYauVUa1tc1dXk-1" value="MethodSymbol" style="swimlane;whiteSpace=wrap;html=1;" vertex="1" parent="1">
          <mxGeometry x="40" y="40" width="280" height="120" as="geometry" />
        </mxCell>
        <mxCell id="hOOp_BMYauVUa1tc1dXk-4" value="System.Void System.Console::Write(System.String)" style="rounded=0;whiteSpace=wrap;html=1;" vertex="1" parent="hOOp_BMYauVUa1tc1dXk-1">
          <mxGeometry y="30" width="280" height="30" as="geometry" />
        </mxCell>
        <mxCell id="hOOp_BMYauVUa1tc1dXk-9" value="CILRuntimeSpecificMethodNode" style="rounded=0;whiteSpace=wrap;html=1;" vertex="1" parent="hOOp_BMYauVUa1tc1dXk-1">
          <mxGeometry y="60" width="280" height="30" as="geometry" />
        </mxCell>
        <mxCell id="hOOp_BMYauVUa1tc1dXk-12" value="..." style="rounded=0;whiteSpace=wrap;html=1;" vertex="1" parent="hOOp_BMYauVUa1tc1dXk-1">
          <mxGeometry y="90" width="280" height="30" as="geometry" />
        </mxCell>
        <mxCell id="hOOp_BMYauVUa1tc1dXk-25" style="edgeStyle=orthogonalEdgeStyle;rounded=0;orthogonalLoop=1;jettySize=auto;html=1;exitX=1;exitY=0.5;exitDx=0;exitDy=0;entryX=0.5;entryY=0;entryDx=0;entryDy=0;" edge="1" parent="1" source="hOOp_BMYauVUa1tc1dXk-3" target="hOOp_BMYauVUa1tc1dXk-20">
          <mxGeometry relative="1" as="geometry" />
        </mxCell>
        <mxCell id="hOOp_BMYauVUa1tc1dXk-3" value="MethodSymbol" style="swimlane;whiteSpace=wrap;html=1;" vertex="1" parent="1">
          <mxGeometry x="460" y="40" width="280" height="150" as="geometry" />
        </mxCell>
        <mxCell id="hOOp_BMYauVUa1tc1dXk-7" value="System.Void Program::Main(System.String[] args)" style="rounded=0;whiteSpace=wrap;html=1;" vertex="1" parent="hOOp_BMYauVUa1tc1dXk-3">
          <mxGeometry y="30" width="280" height="30" as="geometry" />
        </mxCell>
        <mxCell id="hOOp_BMYauVUa1tc1dXk-5" value="CIL" style="rounded=0;whiteSpace=wrap;html=1;" vertex="1" parent="hOOp_BMYauVUa1tc1dXk-3">
          <mxGeometry y="60" width="280" height="30" as="geometry" />
        </mxCell>
        <mxCell id="hOOp_BMYauVUa1tc1dXk-10" value="CILMethodNode" style="rounded=0;whiteSpace=wrap;html=1;" vertex="1" parent="hOOp_BMYauVUa1tc1dXk-3">
          <mxGeometry y="90" width="280" height="30" as="geometry" />
        </mxCell>
        <mxCell id="hOOp_BMYauVUa1tc1dXk-13" value="..." style="rounded=0;whiteSpace=wrap;html=1;" vertex="1" parent="hOOp_BMYauVUa1tc1dXk-3">
          <mxGeometry y="120" width="280" height="30" as="geometry" />
        </mxCell>
        <mxCell id="hOOp_BMYauVUa1tc1dXk-23" style="edgeStyle=orthogonalEdgeStyle;rounded=0;orthogonalLoop=1;jettySize=auto;html=1;exitX=1;exitY=0.5;exitDx=0;exitDy=0;entryX=0.5;entryY=1;entryDx=0;entryDy=0;" edge="1" parent="1" source="hOOp_BMYauVUa1tc1dXk-6" target="hOOp_BMYauVUa1tc1dXk-19">
          <mxGeometry relative="1" as="geometry" />
        </mxCell>
        <mxCell id="hOOp_BMYauVUa1tc1dXk-6" value="RuntimeSpecificMethodImplementations" style="rounded=0;whiteSpace=wrap;html=1;" vertex="1" parent="1">
          <mxGeometry x="40" y="200" width="280" height="40" as="geometry" />
        </mxCell>
        <mxCell id="hOOp_BMYauVUa1tc1dXk-22" style="edgeStyle=orthogonalEdgeStyle;rounded=0;orthogonalLoop=1;jettySize=auto;html=1;exitX=0.5;exitY=1;exitDx=0;exitDy=0;entryX=0;entryY=0.5;entryDx=0;entryDy=0;" edge="1" parent="1" source="hOOp_BMYauVUa1tc1dXk-18" target="hOOp_BMYauVUa1tc1dXk-6">
          <mxGeometry relative="1" as="geometry" />
        </mxCell>
        <mxCell id="hOOp_BMYauVUa1tc1dXk-18" value="Ask the implementation" style="rounded=1;whiteSpace=wrap;html=1;" vertex="1" parent="1">
          <mxGeometry x="-70" y="160" width="90" height="40" as="geometry" />
        </mxCell>
        <mxCell id="hOOp_BMYauVUa1tc1dXk-24" style="edgeStyle=orthogonalEdgeStyle;rounded=0;orthogonalLoop=1;jettySize=auto;html=1;exitX=0.5;exitY=0;exitDx=0;exitDy=0;entryX=1;entryY=0.5;entryDx=0;entryDy=0;" edge="1" parent="1" source="hOOp_BMYauVUa1tc1dXk-19" target="hOOp_BMYauVUa1tc1dXk-9">
          <mxGeometry relative="1" as="geometry" />
        </mxCell>
        <mxCell id="hOOp_BMYauVUa1tc1dXk-19" value="Returns implementation" style="rounded=1;whiteSpace=wrap;html=1;" vertex="1" parent="1">
          <mxGeometry x="340" y="160" width="90" height="40" as="geometry" />
        </mxCell>
        <mxCell id="hOOp_BMYauVUa1tc1dXk-26" style="edgeStyle=orthogonalEdgeStyle;rounded=0;orthogonalLoop=1;jettySize=auto;html=1;exitX=0;exitY=0.5;exitDx=0;exitDy=0;entryX=1;entryY=0.5;entryDx=0;entryDy=0;" edge="1" parent="1" source="hOOp_BMYauVUa1tc1dXk-20" target="hOOp_BMYauVUa1tc1dXk-10">
          <mxGeometry relative="1" as="geometry" />
        </mxCell>
        <mxCell id="hOOp_BMYauVUa1tc1dXk-20" value="CIL transformed to node" style="rounded=1;whiteSpace=wrap;html=1;" vertex="1" parent="1">
          <mxGeometry x="780" y="125" width="90" height="40" as="geometry" />
        </mxCell>
      </root>
    </mxGraphModel>
  </diagram>
</mxfile>
